<?xml version="1.0" encoding="UTF-8" standalone="no"?>
<!DOCTYPE svg PUBLIC "-//W3C//DTD SVG 1.1//EN" "http://www.w3.org/Graphics/SVG/1.1/DTD/svg11.dtd">
<svg width="100%" height="100%" viewBox="0 0 1494 572" version="1.1" xmlns="http://www.w3.org/2000/svg" xmlns:xlink="http://www.w3.org/1999/xlink" xml:space="preserve" xmlns:serif="http://www.serif.com/" style="fill-rule:evenodd;clip-rule:evenodd;">
    <g id="Artboard1" transform="matrix(0.96421,0,0,0.931883,-20.4829,-48.0023)">
        <rect x="21.243" y="51.511" width="1549.27" height="612.999" style="fill:none;"/>
        <clipPath id="_clip1">
            <rect x="21.243" y="51.511" width="1549.27" height="612.999"/>
        </clipPath>
        <g clip-path="url(#_clip1)">
            <g transform="matrix(1.03712,0,0,1.0731,-17.8645,-28.8331)">
                <path id="aadkTO0c" d="M510.25,464.77C549.7,443.09 540.67,372.8 483.16,253.9C481.69,250.86 477.1,252 477.23,255.38C478.95,299.99 463.91,345.96 432.14,393.31C401.89,438.38 375.6,461.11 353.27,461.49C350.42,461.54 349.87,465.56 352.6,466.37C419.4,486.36 471.95,485.82 510.25,464.77Z" style="fill-opacity:0;fill-rule:nonzero;stroke:white;stroke-width:24px;"/>
                <g>
                    <clipPath id="_clip2">
                        <path id="j6awzFwTKZ" d="M441.7,270.23C450.63,162.8 407.6,105.86 312.61,99.4C217.63,92.95 162.18,148.85 146.27,267.1"/>
                    </clipPath>
                    <g clip-path="url(#_clip2)">
                        <path d="M441.7,270.23C450.63,162.8 407.6,105.86 312.61,99.4C217.63,92.95 162.18,148.85 146.27,267.1" style="fill-opacity:0;fill-rule:nonzero;stroke:rgb(142,58,229);stroke-width:60px;"/>
                    </g>
                    <path id="j6awzFwTKZ1" serif:id="j6awzFwTKZ" d="M441.7,270.23C450.63,162.8 407.6,105.86 312.61,99.4C217.63,92.95 162.18,148.85 146.27,267.1" style="fill-opacity:0;fill-rule:nonzero;stroke:white;stroke-width:40px;"/>
                </g>
                <path id="e2223QSNIJ" d="M78.84,454.45C39.2,433.12 47.59,362.76 104.02,243.35C105.47,240.29 110.06,241.39 109.96,244.77C108.66,289.39 124.1,335.23 156.31,382.29C186.96,427.08 213.45,449.57 235.78,449.75C238.63,449.78 239.22,453.79 236.5,454.63C169.88,475.22 117.33,475.15 78.84,454.45Z" style="fill-opacity:0;fill-rule:nonzero;stroke:rgb(217,217,217);stroke-width:24px;"/>
                <path id="a1Xsm1gnck" d="M767.36,327.38C758.88,370.94 618.11,375.85 614.88,351.02C612.73,334.47 629.2,326.13 664.31,326" style="fill-opacity:0;fill-rule:nonzero;stroke:white;stroke-width:24px;"/>
                <path id="b16V0TDUPU" d="M1376.46,429.76C1374.79,448.64 1366.35,464.95 1351.14,478.69C1335.94,492.43 1316.24,490.28 1292.06,472.24C1309.67,544.96 1300.55,594.26 1264.68,620.13C1210.88,658.95 1269.74,539.52 1278.98,458.46C1289.83,363.29 1315.26,241.51 1346.79,299.65C1378.31,357.79 1302.97,457.64 1264.68,458.46C1239.15,459 1226.95,436.74 1228.06,391.69" style="fill-opacity:0;fill-rule:nonzero;stroke:white;stroke-width:24px;"/>
                <path id="aEm33vZw" d="M1521.43,397.89C1383.08,533.92 1347.03,602.63 1413.29,604.03C1479.55,605.42 1498.24,518.58 1469.35,343.48C1474.97,437.88 1457.22,485.17 1416.09,485.35C1374.97,485.54 1365.85,437.23 1388.74,340.44" style="fill-opacity:0;fill-rule:nonzero;stroke:white;stroke-width:24px;"/>
                <path id="b6oAccOgt" d="M1231.62,316.61C1230.66,320.62 1235.29,321.09 1237.8,322.54C1240.31,323.99 1243.31,318.5 1246.58,316.54C1249.86,314.58 1246.08,312.04 1242.65,308.28C1240.37,305.78 1237.41,306.81 1233.79,311.36C1232.98,312.18 1232.26,313.93 1231.62,316.61Z" style="fill-opacity:0;fill-rule:nonzero;stroke:white;stroke-width:24px;"/>
                <path id="bFSR6REiV" d="M1150.2,429.41C1149.81,462.01 1161.61,474.68 1185.59,467.4C1209.57,460.13 1226.09,417.8 1235.14,340.44" style="fill-opacity:0;fill-rule:nonzero;stroke:white;stroke-width:24px;"/>
                <path id="a4oN9Vqbfv" d="M1165.35,222.37C1162.72,383.12 1151.33,465.7 1131.2,470.11C1100.99,476.71 1027.73,485.72 1049.04,410.7C1063.25,360.68 1098.31,343.07 1154.23,357.85" style="fill-opacity:0;fill-rule:nonzero;stroke:white;stroke-width:24px;"/>
                <path id="aj2Ngofv" d="M1067.39,470.07C1000.91,464.75 1043.7,362.53 990.16,332.51C954.48,312.5 923.01,361.26 895.77,478.79C906.88,387.67 908.8,338.91 901.55,332.51C894.3,326.11 882.06,326.11 864.85,332.51" style="fill-opacity:0;fill-rule:nonzero;stroke:white;stroke-width:24px;"/>
                <path id="c16J6JKBO" d="M869.93,318.82C882.99,389.71 876.99,471.48 794.18,476.48C738.97,479.82 731.15,426.97 770.71,317.94" style="fill-opacity:0;fill-rule:nonzero;stroke:white;stroke-width:24px;"/>
                <path id="a2dGhVYvkG" d="M637.6,477.32C698.58,478.58 712.85,452.54 718.19,411.06C723.54,369.57 697.97,324.69 644.81,324.49C591.65,324.3 559.15,366.77 562.38,407.39C565.61,448 576.62,476.05 637.6,477.32Z" style="fill-opacity:0;fill-rule:nonzero;stroke:white;stroke-width:24px;"/>
                <path id="a3ZumJhHBf" d="M468.21,478.5C494.57,481.51 562.53,460.73 565.21,425.03" style="fill-opacity:0;fill-rule:nonzero;stroke:white;stroke-width:24px;"/>
            </g>
        </g>
    </g>
</svg>
