<?xml version="1.0" encoding="UTF-8" standalone="no"?>
<!DOCTYPE svg PUBLIC "-//W3C//DTD SVG 1.1//EN" "http://www.w3.org/Graphics/SVG/1.1/DTD/svg11.dtd">
<svg width="100%" height="100%" viewBox="0 0 794 622" version="1.1" xmlns="http://www.w3.org/2000/svg" xmlns:xlink="http://www.w3.org/1999/xlink" xml:space="preserve" xmlns:serif="http://www.serif.com/" style="fill-rule:evenodd;clip-rule:evenodd;">
    <g id="Artboard1" transform="matrix(0.963798,0,0,0.851041,28.479,28.7878)">
        <rect x="-29.549" y="-33.827" width="823.72" height="730.827" style="fill:none;"/>
        <clipPath id="_clip1">
            <rect x="-29.549" y="-33.827" width="823.72" height="730.827"/>
        </clipPath>
        <g clip-path="url(#_clip1)">
            <g transform="matrix(1.03756,0,0,1.17503,-29.3624,-39.4024)">
                <g id="aadkTO0c" transform="matrix(1.46186,0,0,1.46186,-52.605,-99.9032)">
                    <path d="M510.25,464.77C549.7,443.09 540.67,372.8 483.16,253.9C481.69,250.86 477.1,252 477.23,255.38C478.95,299.99 463.91,345.96 432.14,393.31C401.89,438.38 375.6,461.11 353.27,461.49C350.42,461.54 349.87,465.56 352.6,466.37C419.4,486.36 471.95,485.82 510.25,464.77Z" style="fill-opacity:0;fill-rule:nonzero;stroke:white;stroke-width:24px;"/>
                </g>
                <g transform="matrix(1.46186,0,0,1.46186,-52.605,-99.9032)">
                    <clipPath id="_clip2">
                        <path id="j6awzFwTKZ" d="M441.7,270.23C450.63,162.8 407.6,105.86 312.61,99.4C217.63,92.95 162.18,148.85 146.27,267.1"/>
                    </clipPath>
                    <g clip-path="url(#_clip2)">
                        <path d="M441.7,270.23C450.63,162.8 407.6,105.86 312.61,99.4C217.63,92.95 162.18,148.85 146.27,267.1" style="fill-opacity:0;fill-rule:nonzero;stroke:rgb(142,58,229);stroke-width:60px;"/>
                    </g>
                    <path id="j6awzFwTKZ1" serif:id="j6awzFwTKZ" d="M441.7,270.23C450.63,162.8 407.6,105.86 312.61,99.4C217.63,92.95 162.18,148.85 146.27,267.1" style="fill-opacity:0;fill-rule:nonzero;stroke:white;stroke-width:40px;"/>
                </g>
                <g id="e2223QSNIJ" transform="matrix(1.46186,0,0,1.46186,-52.605,-99.9032)">
                    <path d="M78.84,454.45C39.2,433.12 47.59,362.76 104.02,243.35C105.47,240.29 110.06,241.39 109.96,244.77C108.66,289.39 124.1,335.23 156.31,382.29C186.96,427.08 213.45,449.57 235.78,449.75C238.63,449.78 239.22,453.79 236.5,454.63C169.88,475.22 117.33,475.15 78.84,454.45Z" style="fill-opacity:0;fill-rule:nonzero;stroke:rgb(217,217,217);stroke-width:24px;"/>
                </g>
                <g id="a3ZumJhHBf" transform="matrix(1.46186,0,0,1.46186,-52.605,-99.9032)">
                    <path d="M468.21,478.5C494.57,481.51 562.53,460.73 565.21,425.03" style="fill-opacity:0;fill-rule:nonzero;stroke:white;stroke-width:24px;"/>
                </g>
            </g>
        </g>
    </g>
</svg>
